HIERARCHY
ROOT Hips
{
	OFFSET	0.000000	0.000000	0.000000
	CHANNELS 6 Xposition Yposition Zposition Zrotation Xrotation Yrotation
	JOINT LeftHip
	{
		OFFSET	4.740440	-3.195970	-0.322709
		CHANNELS 3 Zrotation Xrotation Yrotation
		JOINT LeftKnee
		{
			OFFSET	-1.605680	-15.592300	1.005510
			CHANNELS 3 Zrotation Xrotation Yrotation
			JOINT LeftAnkle
			{
				OFFSET	-0.632401	-16.421000	-1.413730
				CHANNELS 3 Zrotation Xrotation Yrotation
				End Site
				{
					OFFSET	0.008423	-2.933000	-1.684880
				}
			}
		}
	}
	JOINT RightHip
	{
		OFFSET	-4.740440	-3.195970	-0.322709
		CHANNELS 3 Zrotation Xrotation Yrotation
		JOINT RightKnee
		{
			OFFSET	1.605680	-15.592300	1.005510
			CHANNELS 3 Zrotation Xrotation Yrotation
			JOINT RightAnkle
			{
				OFFSET	0.632401	-16.421000	-1.413730
				CHANNELS 3 Zrotation Xrotation Yrotation
				End Site
				{
					OFFSET	-0.008423	-2.933000	-1.684880
				}
			}
		}
	}
	JOINT Chest
	{
		OFFSET	0.000000	3.468200	0.078401
		CHANNELS 3 Zrotation Xrotation Yrotation
		JOINT LeftCollar
		{
			OFFSET	3.857650	15.070700	-0.011583
			CHANNELS 3 Zrotation Xrotation Yrotation
			JOINT LeftShoulder
			{
				OFFSET	3.979720	-1.940530	-0.165223
				CHANNELS 3 Zrotation Xrotation Yrotation
				JOINT LeftElbow
				{
					OFFSET	0.615844	-10.986600	-0.673886
					CHANNELS 3 Zrotation Xrotation Yrotation
					JOINT LeftWrist
					{
						OFFSET	0.826843	-10.854500	1.034220
						CHANNELS 3 Zrotation Xrotation Yrotation
						End Site
						{
							OFFSET	-1.679080	-8.456540	0.936217
						}
					}
				}
			}
		}
		JOINT RightCollar
		{
			OFFSET	-3.857650	15.070700	-0.011583
			CHANNELS 3 Zrotation Xrotation Yrotation
			JOINT RightShoulder
			{
				OFFSET	-3.979720	-1.940530	-0.165223
				CHANNELS 3 Zrotation Xrotation Yrotation
				JOINT RightElbow
				{
					OFFSET	-0.615845	-10.986600	-0.673886
					CHANNELS 3 Zrotation Xrotation Yrotation
					JOINT RightWrist
					{
						OFFSET	-0.826843	-10.854500	1.034220
						CHANNELS 3 Zrotation Xrotation Yrotation
						End Site
						{
							OFFSET	1.679080	-8.456540	0.936217
						}
					}
				}
			}
		}
		JOINT Neck
		{
			OFFSET	0.000000	15.101400	0.055730
			CHANNELS 3 Zrotation Xrotation Yrotation
			JOINT Head
			{
				OFFSET	0.000000	4.185120	1.488260
				CHANNELS 3 Zrotation Xrotation Yrotation
				End Site
				{
					OFFSET	0.000000	7.773420	-0.106016
				}
			}
		}
	}
}
MOTION
Frames:     13
Frame Time: 0.016667
-100.945854	37.621655	145.002563	-4.068007	-3.206540	-33.564251	11.349809	-11.001547	-7.472382	-4.775164	7.061728	-13.158495	-9.437861	6.436870	8.677100	1.979770	-2.737403	-13.309990	4.831046	9.696908	2.594384	-3.826106	-3.335434	-31.394436	2.296496	13.222740	2.906890	0.606105	-4.004914	-5.615850	17.239269	-0.992706	16.702835	-25.449139	-54.436619	-32.264668	33.810062	-25.077148	-12.680771	2.397714	-2.576694	0.879710	-17.180750	-11.815801	5.376883	27.205114	-47.414272	28.037771	-12.054712	-15.619547	9.165460	0.676676	10.960830	11.001401	0.860166	17.902960	6.171349	
-101.056877	37.565022	144.889664	-4.202615	-3.270441	-33.499969	12.025628	-11.260605	-7.274354	-5.320470	7.642103	-13.301022	-9.762810	5.884131	8.444066	2.187605	-2.477131	-13.305911	4.744103	9.430369	2.431461	-3.868920	-3.285702	-31.303638	2.414099	13.182120	3.106904	0.726625	-3.766313	-5.348299	16.840246	-0.350329	16.923296	-26.072115	-55.432915	-34.503723	33.905827	-25.899368	-15.184260	2.487088	-2.522539	0.953331	-17.046364	-11.840372	5.512216	27.612310	-47.571224	28.375416	-11.988386	-15.537986	9.155615	0.683378	11.112017	10.852506	0.486623	18.620741	6.428259	
-101.172585	37.500782	144.947739	-4.516693	-3.479806	-33.147449	12.560505	-11.405618	-7.499816	-5.649251	8.922661	-13.753971	-10.749128	4.076720	7.725818	2.644770	-1.707942	-13.490659	4.630656	8.685459	2.163350	-3.972183	-3.096209	-31.195274	2.629618	13.049006	3.608312	1.182003	-3.028375	-4.591855	15.780410	1.793539	17.485769	-28.953476	-58.563095	-41.980305	33.795891	-27.886122	-22.027723	2.783513	-2.350894	1.147366	-16.733179	-11.937793	5.934497	28.866337	-47.886009	29.380209	-11.955891	-15.532389	9.011913	0.799462	11.516663	10.387587	0.377873	19.093618	6.260794	
-101.201759	37.498402	144.942200	-4.611520	-3.561985	-33.007229	12.937660	-11.674717	-7.441955	-5.990598	9.534930	-14.100163	-11.067079	3.445838	7.513837	2.763170	-1.446504	-13.580698	4.624671	8.483611	2.144043	-4.046680	-3.089262	-31.237289	2.654496	13.035215	3.767107	1.382533	-2.841126	-4.322539	15.511134	2.606530	17.603363	-30.400408	-59.523125	-44.745567	33.649918	-28.110962	-23.636179	2.881100	-2.310103	1.213264	-16.641790	-11.956701	6.084180	29.276480	-47.958809	29.708847	-11.998569	-15.631547	8.910333	0.903660	11.653583	10.209054	0.035560	19.507631	6.385779	
-101.280426	37.501785	144.893173	-4.848671	-3.823307	-32.543198	13.143512	-11.789767	-7.698110	-6.088557	10.749595	-15.001541	-12.084646	1.599314	6.846597	3.096816	-0.741664	-13.897768	4.564601	7.881867	2.074923	-4.169940	-2.945125	-31.318201	2.719871	13.029375	4.279217	2.047013	-2.414242	-3.566949	14.775245	5.358266	17.817455	-35.677387	-61.713657	-53.137753	33.520905	-27.708633	-26.325008	3.100117	-2.187949	1.311024	-16.434530	-11.970668	6.517274	30.542366	-48.080822	30.773657	-12.146252	-16.048035	8.638346	1.205462	11.988746	9.745436	-0.178925	19.924065	6.083660	
-101.306473	37.504814	144.883026	-4.897117	-3.900494	-32.351295	13.283957	-12.061549	-7.548553	-6.185828	11.403952	-15.569174	-12.359712	1.071021	6.627776	3.172514	-0.531588	-14.043493	4.558412	7.702630	2.086137	-4.204321	-2.909306	-31.373457	2.747479	13.016768	4.427716	2.242624	-2.343268	-3.343301	14.618782	6.402899	17.846626	-37.800156	-62.134312	-55.864220	33.942402	-27.297958	-26.737305	3.151981	-2.145612	1.345595	-16.387392	-11.959657	6.608354	30.990070	-48.063217	31.193815	-12.213013	-16.183508	8.552289	1.256502	12.105253	9.609324	-0.540435	20.375280	6.204714	
-101.386185	37.513451	144.873596	-4.985136	-4.117430	-31.647234	13.182108	-12.373259	-7.969441	-6.200160	13.368257	-17.315193	-12.451904	-0.866522	6.618299	3.398306	0.030935	-14.552568	4.413006	7.253726	2.012322	-4.224242	-2.907849	-31.483204	2.861522	12.969104	4.881105	2.913783	-2.128017	-2.667807	14.249312	9.530473	17.665045	-44.388229	-62.444057	-63.057743	35.848732	-25.969366	-26.996599	3.226257	-1.921487	1.342133	-16.261221	-12.023243	6.701282	32.368458	-47.881454	32.637520	-12.342288	-16.382284	8.272494	1.218826	12.435916	9.109978	-0.533367	20.719101	5.871584	
-101.419167	37.517845	144.871445	-4.972217	-4.155899	-31.375998	13.113074	-12.854747	-7.988703	-6.394550	14.736775	-18.409613	-11.964879	-1.863105	7.227036	3.470011	0.180523	-14.759757	4.355926	7.088175	1.960037	-4.226590	-2.909751	-31.483969	2.866421	12.934875	5.044164	3.158722	-2.045269	-2.460996	14.170487	10.537998	17.566259	-46.461224	-62.347744	-65.181160	36.502029	-25.613092	-27.033728	3.252517	-1.873534	1.334946	-16.250109	-12.008802	6.702198	32.863674	-47.802933	33.142300	-12.369101	-16.414892	8.219725	1.208577	12.531217	8.909220	-0.990030	21.128939	6.079012	
-101.475235	37.538040	144.884995	-4.899239	-4.191309	-30.533203	12.739431	-13.507473	-8.708937	-6.557011	16.207342	-19.138893	-11.092478	-2.686285	7.840847	3.589969	0.587530	-15.476453	4.253240	6.511322	1.709920	-4.181860	-2.864752	-31.310308	2.824797	12.767226	5.623785	3.941267	-1.711620	-1.850033	13.769867	13.515898	17.072323	-51.432453	-62.158665	-70.799973	37.686951	-25.162361	-27.834265	3.371972	-1.709838	1.236084	-16.427094	-11.868892	6.748939	35.308998	-47.263588	35.732918	-13.242371	-16.394796	7.719246	1.264165	12.826585	8.329381	-1.028286	21.355223	5.743672	
-101.486458	37.542316	144.899689	-4.891416	-4.144950	-30.243128	12.529686	-14.092310	-8.912994	-6.722968	17.731443	-19.401169	-10.386724	-3.514069	8.128985	3.654964	0.708466	-15.786678	4.233835	6.292217	1.651844	-4.166443	-2.849133	-31.213713	2.854483	12.691625	5.836295	4.211963	-1.549716	-1.631086	13.537111	14.408606	16.913866	-52.802105	-62.102600	-72.597870	37.982399	-25.031469	-28.455822	3.403483	-1.659177	1.201482	-16.533260	-11.817327	6.783994	36.589752	-46.769047	37.262188	-14.061978	-16.331511	7.225500	1.285606	12.907019	8.116761	-1.172603	21.511017	5.723435	
-101.518295	37.564270	144.950180	-4.895428	-3.997452	-29.384748	12.211011	-14.907250	-9.643795	-6.889937	19.280014	-19.236559	-9.486304	-3.993164	8.661454	3.900110	1.092114	-16.742731	4.148878	5.575274	1.319322	-3.847692	-2.823608	-30.983257	3.029327	12.486487	6.470742	4.995110	-0.863250	-0.806398	12.454219	16.803360	16.787809	-55.969093	-61.724590	-77.163895	38.855679	-24.736919	-29.047937	3.359162	-1.504258	1.151729	-16.820110	-11.658521	6.957702	36.803158	-46.861664	37.410564	-13.064407	-16.609552	7.693788	1.161744	13.125291	7.564157	-1.524083	21.976049	5.655351	
-101.578247	37.595558	145.083527	-4.904183	-3.943926	-29.090755	12.011078	-15.430923	-9.694593	-7.024976	20.693012	-18.848881	-8.958076	-4.545392	8.410394	3.973817	1.666417	-17.120872	4.259542	4.910567	1.272238	-3.592107	-2.870977	-31.073204	3.118081	12.446530	6.661769	5.224116	-0.604862	-0.468573	11.992517	17.532602	16.867203	-56.725239	-61.446766	-78.092712	39.277641	-24.786428	-28.184105	3.310077	-1.461325	1.169920	-16.951782	-11.610526	7.027734	37.833675	-46.296326	38.764637	-13.796991	-16.598728	7.251693	1.055588	13.182636	7.428009	-1.593031	22.098610	5.618623	
-101.524223	37.600452	145.099899	-4.952177	-3.777575	-28.262209	11.787054	-16.054796	-10.105795	-7.131508	21.972399	-18.441193	-8.528576	-4.780184	9.024364	4.122163	1.699910	-17.951902	4.191748	4.593930	0.527085	-3.153618	-2.950577	-30.775784	3.431898	12.422835	7.320570	5.814086	0.252180	0.682716	10.275990	19.497492	17.369495	-58.474983	-60.128998	-79.284462	42.624901	-25.363060	-23.882523	3.107075	-1.364940	1.358323	-17.459568	-11.287644	7.135026	38.007545	-46.603420	38.710495	-12.656307	-16.726620	8.022714	0.658218	13.424387	7.150513	-1.755185	22.352118	5.362261	
